<svg width="32" height="32" viewBox="0 0 32 32" fill="none" xmlns="http://www.w3.org/2000/svg">
<rect width="32" height="32" rx="11" fill="#F5F5F5"/>
<path d="M7.01729 10.6059L7.00146 27.8399L10.6027 30V12.7566L7.01729 10.6059Z" fill="#003D7C"/>
<path d="M21.4012 2L15.2691 5.66205L7 10.6049L10.5983 12.7633L24.9968 4.15668L21.4012 2Z" fill="#003D7C"/>
<path d="M24.9842 4.13029L21.3987 6.281V6.30511L14.1882 10.62V10.6059L10.6028 12.7566V12.7655L10.6003 12.767L10.6018 17.0767L10.6028 17.076V29.9998L14.204 27.8397L14.1921 14.928L18.8685 12.1294L21.3987 10.6138V23.5242L25 21.364L24.9881 8.4641L24.9961 8.45929L24.9948 4.15287L24.9842 4.15926L24.9842 4.13029Z" fill="#EF7C00"/>
<path d="M21.3987 10.6171L18.8684 12.1327L17.8209 12.7595L17.813 21.3625L21.3987 23.5132V10.6171Z" fill="#003D7C"/>
</svg>
